HIERARCHY
ROOT Hips
{
    OFFSET 0.000000 0.000000 0.000000
    CHANNELS 6 Xposition Yposition Zposition Zrotation Xrotation Yrotation
    JOINT Spine
    {
        OFFSET -0.000000 8.104110 0.000000
        CHANNELS 3 Zrotation Xrotation Yrotation
        JOINT Spine1
        {
            OFFSET -0.000000 22.417536 0.000000
            CHANNELS 3 Zrotation Xrotation Yrotation
            JOINT Neck
            {
                OFFSET -0.000000 22.325472 2.029588
                CHANNELS 3 Zrotation Xrotation Yrotation
                JOINT Head
                {
                    OFFSET -0.000000 13.836284 -1.976612
                    CHANNELS 3 Zrotation Xrotation Yrotation
                    End Site
                    {
                        OFFSET -0.000000 24.707651 0.000000
                    }
                }
            }
            JOINT LeftShoulder
            {
                OFFSET 3.973640 20.379602 -0.279950
                CHANNELS 3 Zrotation Xrotation Yrotation
                JOINT LeftArm
                {
                    OFFSET 11.493720 0.000000 0.000000
                    CHANNELS 3 Zrotation Xrotation Yrotation
                    JOINT LeftForeArm
                    {
                        OFFSET 31.336695 0.000000 0.000000
                        CHANNELS 3 Zrotation Xrotation Yrotation
                        JOINT LeftHand
                        {
                            OFFSET 29.043781 0.000000 0.000000
                            CHANNELS 3 Zrotation Xrotation Yrotation
                            End Site
                            {
                                OFFSET 14.824592 0.000000 0.000000
                            }
                        }
                    }
                }
            }
            JOINT RightShoulder
            {
                OFFSET -3.921018 20.379602 -0.279950
                CHANNELS 3 Zrotation Xrotation Yrotation
                JOINT RightArm
                {
                    OFFSET -11.493720 0.000000 0.000000
                    CHANNELS 3 Zrotation Xrotation Yrotation
                    JOINT RightForeArm
                    {
                        OFFSET -31.336695 0.000000 0.000000
                        CHANNELS 3 Zrotation Xrotation Yrotation
                        JOINT RightHand
                        {
                            OFFSET -29.043781 0.000000 0.000000
                            CHANNELS 3 Zrotation Xrotation Yrotation
                            End Site
                            {
                                OFFSET -14.824592 0.000000 0.000000
                            }
                        }
                    }
                }
            }
        }
    }
    JOINT LeftUpLeg
    {
        OFFSET 9.883060 0.000000 0.000000
        CHANNELS 3 Zrotation Xrotation Yrotation
        JOINT LeftLeg
        {
            OFFSET -0.000000 -43.587502 0.000000
            CHANNELS 3 Zrotation Xrotation Yrotation
            JOINT LeftFoot
            {
                OFFSET -0.000000 -41.501083 0.000000
                CHANNELS 3 Zrotation Xrotation Yrotation
                JOINT LeftToeBase
                {
                    OFFSET -0.000000 -6.423989 14.824592
                    CHANNELS 3 Zrotation Xrotation Yrotation
                    End Site
                    {
                        OFFSET -0.000000 0.000000 3.953224
                    }
                }
            }
        }
    }
    JOINT RightUpLeg
    {
        OFFSET -9.883060 0.000000 0.000000
        CHANNELS 3 Zrotation Xrotation Yrotation
        JOINT RightLeg
        {
            OFFSET -0.000000 -43.587502 0.000000
            CHANNELS 3 Zrotation Xrotation Yrotation
            JOINT RightFoot
            {
                OFFSET -0.000000 -41.501083 0.000000
                CHANNELS 3 Zrotation Xrotation Yrotation
                JOINT RightToeBase
                {
                    OFFSET -0.000000 -6.423989 14.824592
                    CHANNELS 3 Zrotation Xrotation Yrotation
                    End Site
                    {
                        OFFSET -0.000000 0.000000 3.953224
                    }
                }
            }
        }
    }
}
MOTION
Frames:    6
Frame Time:    0.008333
-36.003372    80.434181    -20.129820    -3.699815    -10.360758    -172.351700    0.158798    -0.650517    -0.613089    5.210127    26.251184    -1.829717    -5.377712    9.762718    -6.559702    2.986846    -8.011112    -5.871383    0.445370    4.554150    -7.796429    -15.942287    45.013393    -41.681286    20.926582    -25.436115    -63.264057    38.331097    -14.700966    -4.721080    -2.252409    11.705223    6.195147    26.689732    39.826836    31.478977    -20.293413    -32.157513    70.144043    7.922461    -18.361767    11.988227    19.529568    -47.575291    20.793900    -1.585396    54.142090    -3.397362    -13.026711    -11.774085    8.643111    0.000000    0.000000    0.000000    -37.599014    -31.699255    -19.905430    76.824486    79.837341    -60.849232    -1.557611    -24.232698    -24.216820    0.000000    0.000000    0.000000    
-36.548252    80.553619    -20.508503    -3.635829    -10.255901    -172.050003    0.119776    -0.643843    -0.729361    5.109767    26.217768    -1.920715    -5.711253    9.819095    -6.547123    3.786280    -7.927841    -5.675729    0.562756    4.475386    -7.756267    -15.617360    44.933147    -41.540840    20.722466    -25.295723    -63.366592    38.376320    -14.629145    -4.645371    -2.221491    11.662807    6.271888    27.032246    40.075489    31.455793    -20.309418    -32.313816    70.410789    7.656713    -18.504601    11.661630    19.007944    -47.349171    20.324341    -1.865157    54.351795    -3.606149    -12.907120    -12.301899    8.802914    0.000000    0.000000    0.000000    -37.160172    -32.391159    -20.911087    87.885078    79.694962    -71.134857    -1.707872    -24.486031    -24.202576    0.000000    0.000000    0.000000    
-37.040298    80.668991    -20.852753    -3.501487    -10.255137    -171.813446    -0.030505    -0.776954    -0.777687    5.340576    26.359768    -2.029078    -5.824295    9.764093    -6.757960    4.018090    -8.065560    -5.832250    0.543969    4.185044    -7.649581    -15.251690    44.898972    -41.561798    20.572376    -25.050055    -63.394760    38.168930    -14.508267    -4.836466    -2.319487    11.545693    6.074064    27.082317    40.399670    31.758444    -20.348494    -32.454697    70.609688    7.360315    -18.620424    11.534270    18.677343    -47.277618    20.436991    -1.517531    54.600201    -4.177273    -12.740028    -12.608070    8.719420    0.000000    0.000000    0.000000    -36.606445    -33.249290    -22.050331    97.402733    79.309120    -80.093513    -1.605152    -24.752718    -23.830496    0.000000    0.000000    0.000000    
-37.511559    80.799232    -21.196846    -3.304651    -10.249664    -171.591843    0.035928    -0.856722    -0.831923    5.246055    26.341709    -2.060679    -5.811430    9.725641    -6.841678    4.223842    -7.959829    -5.878630    0.750579    4.037058    -7.739568    -15.204461    44.856491    -41.325897    20.332384    -24.975468    -63.412060    37.827991    -14.632189    -5.057321    -2.291359    11.776601    6.063580    27.192837    40.443424    32.003746    -20.672602    -32.572311    70.545006    7.732483    -18.493689    11.716101    18.455328    -47.148777    20.458561    -1.405052    54.774105    -4.480184    -12.545413    -12.969357    8.620499    0.000000    0.000000    0.000000    -35.966026    -34.080124    -23.080719    105.246460    78.545372    -86.236870    -1.736102    -24.944143    -24.196121    0.000000    0.000000    0.000000    
-37.972397    80.946663    -21.545256    -3.166132    -10.239482    -171.428619    0.165349    -0.936242    -0.883721    4.967824    26.323009    -2.047442    -5.738068    9.845463    -6.901175    4.374684    -8.122641    -5.913709    0.907293    3.868604    -7.706383    -15.056151    44.767452    -41.153831    20.044458    -24.691080    -63.522900    38.106331    -14.529624    -5.159228    -2.151230    11.810230    6.089496    27.309258    40.690327    32.087204    -20.875259    -32.718845    70.636009    7.634298    -18.509262    11.588543    18.248562    -46.919968    20.547964    -1.438076    54.816956    -4.456494    -12.351970    -13.233685    8.358291    0.000000    0.000000    0.000000    -35.362625    -34.931000    -24.070610    110.963943    77.696915    -90.479469    -1.533560    -25.073051    -24.196224    0.000000    0.000000    0.000000    
-38.430397    81.106293    -21.895102    -3.046952    -10.158664    -171.266495    0.256887    -0.972264    -0.977907    4.808161    26.373224    -2.107307    -5.798712    9.805618    -6.908003    4.546586    -8.053136    -5.881452    0.880475    3.851056    -7.635120    -14.584545    44.650970    -41.148556    19.815508    -24.709253    -63.557072    38.157375    -14.680929    -5.142732    -2.195204    11.815820    6.138496    27.512341    40.845249    32.284332    -21.117086    -32.744030    70.629196    7.671940    -18.369637    11.513405    17.949144    -46.627220    20.472589    -1.422040    54.867809    -4.340273    -12.338046    -13.475328    8.028430    0.000000    0.000000    0.000000    -34.696156    -35.650234    -25.145996    114.844971    76.902588    -93.817116    -0.947398    -25.291252    -23.058666    0.000000    0.000000    0.000000    
